<svg width="73" height="39" viewBox="0 0 73 39" fill="none" xmlns="http://www.w3.org/2000/svg">
<rect width="73" height="39" rx="5" fill="#9BC7ED"/>
<path d="M16.16 13.8C17.88 13.8 19.2 14.1867 20.12 14.96C21.04 15.72 21.5 16.7333 21.5 18C21.5 19.4533 21.0467 20.5467 20.14 21.28C19.2467 22.0133 17.94 22.38 16.22 22.38L15.76 22.62H13.56V27H9V13.8H16.16ZM15.36 19.56C15.8533 19.56 16.22 19.4733 16.46 19.3C16.7133 19.1133 16.84 18.7933 16.84 18.34C16.84 17.9 16.7133 17.5867 16.46 17.4C16.22 17.2133 15.8533 17.12 15.36 17.12H13.56V19.56H15.36ZM18.12 20.54L22.24 27H17.18L14.1 21.22L18.12 20.54ZM30.1016 13.8C31.2882 13.8 32.2949 13.98 33.1216 14.34C33.9482 14.7 34.5749 15.2267 35.0016 15.92C35.4282 16.6133 35.6416 17.46 35.6416 18.46C35.6416 19.46 35.4282 20.3067 35.0016 21C34.5749 21.6933 33.9482 22.22 33.1216 22.58C32.2949 22.94 31.2882 23.12 30.1016 23.12H27.7616V27H23.1016V13.8H30.1016ZM29.3416 19.82C29.8482 19.82 30.2482 19.7133 30.5416 19.5C30.8349 19.2733 30.9816 18.9267 30.9816 18.46C30.9816 17.9933 30.8349 17.6533 30.5416 17.44C30.2482 17.2133 29.8482 17.1 29.3416 17.1H27.7616V19.82H29.3416ZM43.7027 13.8C45.7693 13.8 47.3293 14.3733 48.3827 15.52C49.436 16.6667 49.9627 18.2933 49.9627 20.4C49.9627 22.4933 49.436 24.12 48.3827 25.28C47.3293 26.4267 45.7693 27 43.7027 27H37.2227V13.8H43.7027ZM43.0427 23.68C43.9093 23.68 44.4827 23.42 44.7627 22.9C45.056 22.3667 45.2027 21.5333 45.2027 20.4C45.2027 19.2667 45.056 18.44 44.7627 17.92C44.4827 17.3867 43.9093 17.12 43.0427 17.12H41.8827V23.68H43.0427ZM63.9391 22.96C63.6991 23.9867 63.2857 24.8133 62.6991 25.44C62.1257 26.0667 61.4257 26.52 60.5991 26.8C59.7724 27.0667 58.8524 27.2 57.8391 27.2C56.4524 27.2 55.2524 26.9333 54.2391 26.4C53.2391 25.8667 52.4657 25.0933 51.9191 24.08C51.3857 23.0667 51.1191 21.84 51.1191 20.4C51.1191 18.96 51.3857 17.7333 51.9191 16.72C52.4657 15.7067 53.2391 14.9333 54.2391 14.4C55.2524 13.8667 56.4524 13.6 57.8391 13.6C58.8124 13.6 59.7191 13.74 60.5591 14.02C61.3991 14.2867 62.1057 14.7133 62.6791 15.3C63.2657 15.8867 63.6524 16.6533 63.8391 17.6L59.8391 19.16C59.7324 18.2933 59.5124 17.7333 59.1791 17.48C58.8591 17.2267 58.4524 17.1 57.9591 17.1C57.5057 17.1 57.1191 17.22 56.7991 17.46C56.4924 17.6867 56.2591 18.0467 56.0991 18.54C55.9524 19.02 55.8791 19.64 55.8791 20.4C55.8791 21.1467 55.9457 21.7667 56.0791 22.26C56.2257 22.7533 56.4591 23.12 56.7791 23.36C57.0991 23.5867 57.5257 23.7 58.0591 23.7C58.5391 23.7 58.9324 23.56 59.2391 23.28C59.5457 22.9867 59.7391 22.5267 59.8191 21.9L63.9391 22.96Z" fill="white"/>
</svg>
